<?xml version="1.0" encoding="UTF-8"?>
<svg xmlns="http://www.w3.org/2000/svg" xmlns:xlink="http://www.w3.org/1999/xlink" width="225px" height="150px" viewBox="0 0 225 150" version="1.1">
<g id="surface1">
<path style=" stroke:none;fill-rule:nonzero;fill:rgb(32.54902%,50.980392%,63.137255%);fill-opacity:1;" d="M 137.117188 103.859375 L 136.742188 103.859375 L 136.742188 103.648438 L 137.757812 103.648438 L 137.757812 103.859375 L 137.382812 103.859375 L 137.382812 104.910156 L 137.117188 104.910156 Z M 139.140625 103.914062 L 139.136719 103.914062 L 138.761719 104.910156 L 138.589844 104.910156 L 138.21875 103.914062 L 138.214844 103.914062 L 138.214844 104.910156 L 137.96875 104.910156 L 137.96875 103.648438 L 138.332031 103.648438 L 138.675781 104.539062 L 139.019531 103.648438 L 139.382812 103.648438 L 139.382812 104.910156 L 139.140625 104.910156 Z M 103.394531 78.046875 C 103.394531 78.046875 100.773438 79.570312 105.257812 80.085938 C 110.695312 80.707031 113.472656 80.617188 119.460938 79.484375 C 119.460938 79.484375 121.035156 80.46875 123.234375 81.324219 C 109.808594 87.082031 92.847656 80.992188 103.394531 78.046875 M 101.753906 70.535156 C 101.753906 70.535156 98.8125 72.710938 103.300781 73.175781 C 109.109375 73.773438 113.695312 73.824219 121.628906 72.296875 C 121.628906 72.296875 122.726562 73.410156 124.449219 74.015625 C 108.214844 78.765625 90.132812 74.390625 101.753906 70.535156 "/>
<path style=" stroke:none;fill-rule:nonzero;fill:rgb(97.254902%,59.607843%,11.372549%);fill-opacity:1;" d="M 115.585938 57.796875 C 118.894531 61.605469 114.714844 65.035156 114.714844 65.035156 C 114.714844 65.035156 123.117188 60.695312 119.257812 55.265625 C 115.65625 50.203125 112.890625 47.683594 127.851562 39.007812 C 127.851562 39.007812 104.371094 44.875 115.585938 57.796875 "/>
<path style=" stroke:none;fill-rule:nonzero;fill:rgb(32.54902%,50.980392%,63.137255%);fill-opacity:1;" d="M 133.34375 83.601562 C 133.34375 83.601562 135.28125 85.199219 131.207031 86.433594 C 123.457031 88.78125 98.949219 89.492188 92.140625 86.527344 C 89.691406 85.464844 94.28125 83.984375 95.726562 83.675781 C 97.230469 83.347656 98.09375 83.410156 98.09375 83.410156 C 95.371094 81.492188 80.5 87.175781 90.539062 88.800781 C 117.914062 93.242188 140.445312 86.804688 133.34375 83.601562 M 104.652344 62.753906 C 104.652344 62.753906 92.1875 65.714844 100.238281 66.789062 C 103.636719 67.246094 110.414062 67.144531 116.726562 66.613281 C 121.886719 66.179688 127.066406 65.253906 127.066406 65.253906 C 127.066406 65.253906 125.25 66.03125 123.933594 66.929688 C 111.273438 70.261719 86.816406 68.710938 93.859375 65.304688 C 99.8125 62.429688 104.652344 62.753906 104.652344 62.753906 M 127.015625 75.253906 C 139.886719 68.566406 133.933594 62.140625 129.78125 63.007812 C 128.765625 63.21875 128.308594 63.402344 128.308594 63.402344 C 128.308594 63.402344 128.6875 62.8125 129.410156 62.554688 C 137.625 59.667969 143.945312 71.074219 126.757812 75.59375 C 126.757812 75.59375 126.957031 75.414062 127.015625 75.253906 "/>
<path style=" stroke:none;fill-rule:nonzero;fill:rgb(97.254902%,59.607843%,11.372549%);fill-opacity:1;" d="M 119.257812 25 C 119.257812 25 126.386719 32.128906 112.5 43.09375 C 101.363281 51.886719 109.960938 56.902344 112.492188 62.628906 C 105.992188 56.765625 101.222656 51.601562 104.421875 46.796875 C 109.121094 39.746094 122.132812 36.324219 119.257812 25 "/>
<path style=" stroke:none;fill-rule:nonzero;fill:rgb(32.54902%,50.980392%,63.137255%);fill-opacity:1;" d="M 105.917969 93.375 C 118.269531 94.167969 137.238281 92.9375 137.6875 87.09375 C 137.6875 87.09375 136.824219 89.308594 127.480469 91.066406 C 116.9375 93.050781 103.933594 92.820312 96.222656 91.546875 C 96.222656 91.546875 97.800781 92.855469 105.917969 93.375 M 103.894531 115.707031 C 102.726562 116.71875 101.496094 117.285156 100.394531 117.285156 C 98.816406 117.285156 97.964844 116.339844 97.964844 114.824219 C 97.964844 113.183594 98.878906 111.984375 102.539062 111.984375 L 103.894531 111.984375 L 103.894531 115.707031 M 107.109375 119.335938 L 107.109375 108.105469 C 107.109375 105.238281 105.472656 103.34375 101.527344 103.34375 C 99.226562 103.34375 97.207031 103.914062 95.566406 104.640625 L 96.042969 106.625 C 97.332031 106.152344 99.003906 105.710938 100.644531 105.710938 C 102.917969 105.710938 103.894531 106.625 103.894531 108.519531 L 103.894531 109.9375 L 102.757812 109.9375 C 97.238281 109.9375 94.746094 112.082031 94.746094 115.296875 C 94.746094 118.074219 96.390625 119.652344 99.480469 119.652344 C 101.464844 119.652344 102.949219 118.832031 104.335938 117.632812 L 104.585938 119.335938 Z M 117.839844 119.335938 L 113.828125 119.335938 L 109.003906 103.628906 L 112.503906 103.628906 L 115.5 113.28125 L 116.164062 116.183594 C 117.679688 111.984375 118.753906 107.730469 119.289062 103.628906 L 122.695312 103.628906 C 121.78125 108.800781 120.140625 114.480469 117.839844 119.335938 M 133.222656 115.707031 C 132.054688 116.71875 130.824219 117.285156 129.71875 117.285156 C 128.144531 117.285156 127.292969 116.339844 127.292969 114.824219 C 127.292969 113.183594 128.207031 111.984375 131.867188 111.984375 L 133.222656 111.984375 L 133.222656 115.707031 M 136.4375 119.335938 L 136.4375 108.105469 C 136.4375 105.238281 134.796875 103.34375 130.859375 103.34375 C 128.554688 103.34375 126.535156 103.914062 124.898438 104.640625 L 125.371094 106.625 C 126.660156 106.152344 128.335938 105.710938 129.972656 105.710938 C 132.246094 105.710938 133.222656 106.625 133.222656 108.519531 L 133.222656 109.9375 L 132.085938 109.9375 C 126.566406 109.9375 124.074219 112.082031 124.074219 115.296875 C 124.074219 118.074219 125.714844 119.652344 128.804688 119.652344 C 130.792969 119.652344 132.273438 118.832031 133.664062 117.632812 L 133.917969 119.335938 Z M 91.222656 122.003906 C 90.304688 123.34375 88.824219 124.402344 87.203125 125 L 85.617188 123.132812 C 86.851562 122.5 87.910156 121.476562 88.398438 120.523438 C 88.824219 119.675781 89 118.585938 89 115.976562 L 89 98.042969 L 92.417969 98.042969 L 92.417969 115.730469 C 92.417969 119.21875 92.136719 120.628906 91.222656 122.003906 "/>
</g>
</svg>
